<?xml version="1.0" encoding="utf-8"?>
<!-- Svg Vector Icons : http://www.onlinewebfonts.com/icon -->
<!DOCTYPE svg PUBLIC "-//W3C//DTD SVG 1.1//EN" "http://www.w3.org/Graphics/SVG/1.1/DTD/svg11.dtd">
<svg version="1.1" xmlns="http://www.w3.org/2000/svg" xmlns:xlink="http://www.w3.org/1999/xlink" x="0px" y="0px" viewBox="0 0 1000 1000" enable-background="new 0 0 1000 1000" xml:space="preserve">
<metadata> Svg Vector Icons : http://www.onlinewebfonts.com/icon </metadata>
<g><g transform="translate(0.000000,511.000000) scale(0.100000,-0.100000)"><path d="M3444.6,4906.2c-270-41.5-651.7-184.4-895.8-337.5c-306.4-192.1-636.1-534.9-791.9-828.3c-135-254.5-251.9-381.7-371.3-402.5c-46.7-10.4-197.3-5.2-332.4,10.4C458.6,3415.8,160,3234,105.5,2774.4c-62.3-529.7,405.1-1082.7,1332-1583.9l249.3-132.4l-64.9-54.5c-36.3-31.2-132.4-106.5-215.5-171.4C1089.6,585.6,796.2,214.3,591.1-196C100.3-1177.5,186-2390,806.6-3254.7c485.6-675.1,1267.1-1158,2157.7-1337.2c423.2-83.1,843.9-114.2,1544.9-114.2c685.5,0,981.5,20.8,1531.9,114.2c1690.3,283,2887.3,1067.2,3466.3,2269.4c579,1204.8,511.5,2703-163.6,3705.2c-155.8,231.1-405.1,488.1-566,581.6c-199.9,116.8-296,57.1-563.4-355.7c-189.6-290.8-402.5-485.5-675.1-618c-363.5-179.2-781.6-254.5-1290.5-228.5c-293.4,15.6-727,77.9-794.6,116.8c-23.3,13,2.6,62.3,101.3,179.2c376.5,444,563.4,952.9,563.4,1526.7c0,934.7-516.7,1739.7-1365.8,2131.7C4387.2,4888,3839.3,4965.9,3444.6,4906.2z M4371.6,4420.6c329.7-111.7,532.3-238.9,791.9-498.5c186.9-189.5,241.5-264.8,340.1-470c64.9-135,137.6-322,161-418c54.5-231.1,54.5-667.3-2.6-898.4c-57.1-244.1-215.5-560.8-371.3-745.2c-283-337.5-334.9-488.1-231.1-688.1c44.1-83.1,90.9-129.8,176.6-174c238.9-116.8,924.4-207.7,1376.2-179.2C7534.1,409,8121,710.2,8531.2,1338.6c64.9,101.3,122,187,124.6,192.1c20.8,28.6,231.1-210.3,358.3-402.5c592-882.8,633.6-2259,96.1-3320.9c-309-612.8-869.8-1158.1-1534.6-1493c-475.2-236.3-1152.8-441.4-1755.2-529.7c-976.3-145.4-2357.6-103.9-3043.1,88.3c-981.5,272.6-1747.5,997-2009.7,1898c-77.9,275.3-98.7,867.2-36.4,1168.4C871.5-364.8,1219.4,183.1,1795.8,614.2c254.5,189.5,324.6,288.2,324.6,449.2c0,202.5-85.7,290.8-441.4,470c-732.2,366.1-1199.6,841.3-1160.6,1184c7.8,75.3,33.8,140.2,67.5,176.6c51.9,49.3,77.9,54.5,309,44.2c519.3-23.4,607.6-15.6,727,46.7c187,96.1,322,241.5,459.6,498.5c275.2,511.5,766,880.2,1334.6,999.7C3691.3,4540.1,4088.6,4514.1,4371.6,4420.6z"/><path d="M2663.1,3252.2c-483-251.9-475.2-937.3,15.6-1163.2c238.9-111.6,506.3-72.7,706.3,103.9c155.8,137.6,215.5,267.4,215.5,482.9c0,215.5-59.7,345.3-215.5,483C3174.6,3343.1,2904.6,3379.4,2663.1,3252.2z M3086.3,2880.9c28.5-15.6,67.5-67.5,88.3-116.8c103.9-246.7-218.1-446.6-389.5-241.5c-39,44.1-67.5,111.6-67.5,153.2c0,114.2,114.2,233.7,225.9,233.7C2992.8,2909.5,3055.2,2896.5,3086.3,2880.9z"/><path d="M8214.5-665.9c-277.8-311.6-932.2-950.3-1160.7-1132.1c-641.3-514.1-1277.5-836.1-1900.7-963.3c-259.7-54.5-781.5-54.5-1056.8-2.6c-425.8,83.1-872.4,272.6-1290.5,547.9c-114.2,77.9-236.3,140.2-267.4,140.2c-75.3,0-210.3-135-210.3-210.3c0-80.5,161-225.9,425.8-384.3c623.2-376.5,1207.4-547.9,1866.9-547.9c1199.6,0,2383.6,651.7,3650.7,2007.1c425.8,457,451.8,508.9,316.7,643.9C8463.7-445.2,8396.2-463.4,8214.5-665.9z"/></g></g>
</svg>